<svg width="186" height="46" viewBox="0 0 186 46" fill="none" xmlns="http://www.w3.org/2000/svg">
<g id="Portcullis">
<path id="Vector" d="M66.0169 3.88866V16.8114C66.0169 21.8856 62.2806 23.5454 58.2288 23.5454C54.2256 23.5454 50.465 21.8856 50.465 16.8114V3.88866H54.0315V15.8629C54.0315 19.0876 55.3659 20.6763 58.2045 20.6763C61.0917 20.6763 62.4261 19.1114 62.4261 15.9103V3.88866H66.0169ZM83.8009 23.1186L76.6194 13.2072L83.2672 3.88866H79.1184L73.6352 11.8557H72.1552V3.88866H68.5644V23.1423H72.1552V14.867H73.5624L79.458 23.1423H83.8009V23.1186ZM54.0557 45.5732V38.8155H57.137C61.4799 38.8155 63.8333 36.3732 63.8333 32.4371C63.8333 28.5485 61.7225 26.3196 56.8216 26.3196H50.5135V45.5732H54.0557ZM54.0557 29.2361H56.7003C59.0052 29.2361 60.1698 30.3743 60.1698 32.6031C60.1698 34.666 59.2963 35.9464 56.7246 35.9464H54.0557V29.2361ZM77.6384 34.9031C77.6384 31.465 75.2365 30.1371 71.9126 30.1371C68.8313 30.1371 65.9926 31.4176 65.75 34.6186L68.9769 35.1402C69.2195 33.4804 70.1657 32.8165 71.6699 32.8165C73.1742 32.8165 74.1447 33.5279 74.1447 35.2351V36.2784H73.1985C68.0792 36.2784 65.2405 38.6021 65.2405 41.8743C65.2405 44.4588 67.1087 46 69.826 46C71.864 46 73.6109 45.3361 74.363 43.4392C74.727 45.099 75.8673 45.8578 77.7112 45.8578C78.5118 45.8578 79.1426 45.7155 79.6521 45.5021V42.9176C79.4095 43.0124 79.1184 43.0835 78.7544 43.0835C78.1236 43.0835 77.6141 42.799 77.6141 41.7083V34.9031H77.6384ZM74.1447 40.4042C74.1447 42.064 72.7617 43.4629 70.9663 43.4629C69.5349 43.4629 68.7585 42.6093 68.7585 41.4949C68.7585 39.8588 70.0201 38.365 73.7322 38.365C73.8535 38.365 73.9991 38.365 74.1204 38.365V40.4042H74.1447ZM102.555 30.4928H99.0375V45.5969H102.555V30.4928ZM138.075 30.1134C135.891 30.1134 133.951 31.0619 133.15 33.4567C132.737 31.0145 131.112 30.1134 128.977 30.1134C126.842 30.1134 124.998 31.0619 124.197 33.3856L123.76 30.4691H120.922V45.5732H124.44V37.0372C124.44 34.1207 125.968 33.0062 127.618 33.0062C129.316 33.0062 130.02 34.1207 130.02 35.9227V45.5732H133.49V37.0134C133.49 34.1444 135.067 33.0299 136.692 33.0299C138.366 33.0299 139.07 34.1444 139.07 35.9464V45.5969H142.588V34.7371C142.588 31.4887 140.647 30.1134 138.075 30.1134ZM155.083 40.9732C154.573 42.7042 153.481 43.2969 151.929 43.2969C149.527 43.2969 148.217 41.4238 148.095 38.6969H157.921C158.067 38.199 158.188 37.464 158.188 36.6815C158.188 32.864 156.053 30.1371 151.929 30.1371C147.489 30.1371 144.699 33.1011 144.699 38.199C144.699 43.1547 147.586 45.9763 151.783 45.9763C154.767 45.9763 157.412 44.933 158.091 41.8506L155.083 40.9732ZM148.192 36.4681C148.435 34.1444 149.721 32.7454 151.759 32.7454C153.676 32.7454 154.792 34.1444 154.792 35.8753C154.792 36.065 154.792 36.2784 154.767 36.4681H148.192ZM163.308 30.4928H160.469V45.5969H163.987V37.0609C163.987 33.9547 165.637 33.0536 167.335 33.0536C169.106 33.0536 169.834 34.1918 169.834 35.9938V45.5969H173.352V34.8557C173.352 31.5124 171.168 30.1609 168.694 30.1609C166.365 30.1609 164.569 31.1804 163.744 33.433L163.308 30.4928ZM185.265 42.1825C184.391 42.7753 183.663 43.0598 182.669 43.0598C181.407 43.0598 180.703 42.3959 180.703 40.8073V33.1485H185.313V30.4691H180.728V26.3196H177.185V30.4691H174.953V33.1485H177.185V41.5186C177.185 44.5299 178.957 45.9526 181.844 45.9526C183.421 45.9526 184.828 45.6681 185.92 45.0279L185.265 42.1825ZM84.6501 34.5949L84.2134 30.4691H81.2292V45.5732H84.7472V38.199C84.7472 35.1877 86.858 33.7887 88.896 33.7887C89.0658 33.7887 89.2114 33.7887 89.3812 33.8124V30.2083C86.5911 30.4928 85.1839 32.2712 84.6501 34.5949ZM96.1018 42.8701C95.3011 42.8701 94.7431 42.5145 94.7431 41.566V24.6124H91.2251V42.3722C91.2251 44.8145 92.972 45.8341 95.01 45.8341C95.6893 45.8341 96.3687 45.7155 97.1208 45.4784V42.7279C96.8296 42.8227 96.49 42.8701 96.1018 42.8701ZM117.137 34.9031C117.137 31.465 114.735 30.1371 111.411 30.1371C108.33 30.1371 105.491 31.4176 105.249 34.6186L108.475 35.1402C108.718 33.4804 109.664 32.8165 111.168 32.8165C112.673 32.8165 113.643 33.5279 113.643 35.2351V36.2784H112.697C107.578 36.2784 104.739 38.6021 104.739 41.8743C104.739 44.4588 106.607 46 109.325 46C111.363 46 113.109 45.3361 113.862 43.4392C114.225 45.099 115.366 45.8578 117.21 45.8578C118.01 45.8578 118.641 45.7155 119.151 45.5021V42.9176C118.908 43.0124 118.617 43.0835 118.253 43.0835C117.622 43.0835 117.113 42.799 117.113 41.7083V34.9031H117.137ZM113.667 40.4042C113.667 42.064 112.285 43.4629 110.489 43.4629C109.058 43.4629 108.281 42.6093 108.281 41.4949C108.281 39.8588 109.543 38.365 113.255 38.365C113.376 38.365 113.522 38.365 113.643 38.365V40.4042H113.667ZM98.6008 26.2248C98.6008 27.4578 99.5227 28.3825 100.809 28.3825C102.094 28.3825 103.016 27.4578 103.016 26.2248C103.016 24.9918 102.094 24.067 100.809 24.067C99.5227 24.067 98.6008 25.0155 98.6008 26.2248ZM36.1261 2.79794L35.6409 3.03506C36.1989 3.98351 36.3445 5.24021 36.0048 6.52062C35.4468 6.11753 35.0586 5.50104 34.8645 4.7897L34.3793 5.02681C34.1852 5.71444 33.9425 6.40207 33.6271 7.0897C33.3117 7.75362 32.9721 8.39382 32.5596 8.98661V9.01032L32.6809 9.50826C33.1662 9.27114 33.6999 9.12887 34.2579 9.12887C34.452 9.12887 34.6461 9.15259 34.816 9.1763C34.3307 10.2907 33.1904 11.0969 31.856 11.0969C30.6186 11.0969 29.5269 10.4093 28.9931 9.3897C29.3813 9.22372 29.6724 8.89176 29.7695 8.46496C29.915 7.87217 29.5269 7.58764 29.6482 6.99485C29.7937 6.40207 30.376 6.02269 30.9826 6.16495C31.4436 6.2598 31.7832 6.63918 31.856 7.0897C32.1714 6.90001 32.4383 6.56805 32.5111 6.18867C32.6809 5.4299 32.1957 4.67114 31.4193 4.50516C30.934 4.41031 30.4245 4.55258 30.1091 4.88454C30.3032 4.57629 30.4731 4.24433 30.5459 3.88866C30.74 2.98763 30.4973 2.0866 29.9636 1.37526C29.1629 1.77835 28.5564 2.5134 28.3623 3.41444C28.2895 3.79382 28.2652 4.14949 28.338 4.50516C28.1682 4.07835 27.8043 3.72268 27.2947 3.62784C26.5184 3.46186 25.742 3.93609 25.5721 4.69485C25.4751 5.09794 25.5721 5.47732 25.7905 5.78557C26.0331 5.40619 26.4941 5.2165 26.9793 5.31135C27.5859 5.45361 27.9741 6.02269 27.8285 6.61547C27.6829 7.20825 27.222 7.3031 27.1007 7.89588C27.0279 8.25155 27.1007 8.60722 27.2705 8.89176C27.2705 8.89176 27.2947 8.93918 27.3433 9.01032C26.7125 9.48454 25.9118 9.76908 25.0626 9.76908C23.0004 9.76908 21.3263 8.133 21.3263 6.11753V5.78557C22.4909 5.97526 23.5341 6.54434 24.3105 7.37423L24.6987 6.99485V2.63196L24.2863 2.22887C23.5341 3.05877 22.4909 3.62784 21.3263 3.81753C21.3263 2.22887 22.4424 0.901032 23.9223 0.52165L23.5099 0.118557C22.3938 0.0474227 21.302 0 20.1617 0C19.0457 0 17.9296 0.0474227 16.8136 0.118557L16.4011 0.52165C17.9054 0.901032 18.9971 2.22887 18.9971 3.81753C17.8326 3.62784 16.7893 3.05877 16.0372 2.22887L15.6247 2.63196V6.99485L16.0129 7.37423C16.765 6.54434 17.8083 5.97526 18.9971 5.78557V6.07011C18.9971 8.08557 17.3231 9.72166 15.2608 9.72166C14.4116 9.72166 13.611 9.43712 12.9802 8.9629C13.0287 8.89176 13.053 8.84434 13.053 8.84434C13.2228 8.5598 13.2956 8.20413 13.2228 7.84846C13.0772 7.25568 12.6162 7.16083 12.4949 6.56805C12.3494 5.97526 12.7375 5.38248 13.3441 5.26392C13.8051 5.16908 14.2903 5.35877 14.5329 5.73815C14.7513 5.4299 14.8241 5.05052 14.7513 4.64743C14.5815 3.88866 13.8051 3.41444 13.0287 3.58042C12.5435 3.67526 12.1553 4.03093 11.9854 4.45774C12.034 4.10207 12.034 3.7464 11.9612 3.36701C11.7671 2.46598 11.1605 1.73093 10.3599 1.32784C9.80185 2.03918 9.55923 2.94021 9.77759 3.84124C9.85037 4.22062 10.0202 4.55258 10.2143 4.83712C9.87463 4.50516 9.38939 4.36289 8.90415 4.45774C8.12777 4.62372 7.64253 5.38248 7.81236 6.14124C7.90941 6.54434 8.15203 6.85258 8.46744 7.04228C8.54022 6.59176 8.87989 6.21238 9.34087 6.11753C9.94742 5.97526 10.554 6.35465 10.6753 6.94743C10.8209 7.54021 10.4327 7.82475 10.554 8.41753C10.651 8.84434 10.9422 9.1763 11.3304 9.34228C10.7966 10.3619 9.72906 11.0495 8.46744 11.0495C7.13303 11.0495 5.99271 10.267 5.50747 9.12887C5.70157 9.10516 5.8714 9.08145 6.0655 9.08145C6.64779 9.08145 7.18155 9.22372 7.64253 9.46083L7.76384 8.9629V8.93919C7.37565 8.3464 7.01172 7.70619 6.69631 7.04228C6.38091 6.35465 6.13829 5.66702 5.94419 4.97939L5.45895 4.74227C5.26485 5.45361 4.87666 6.07011 4.31864 6.4732C3.97897 5.2165 4.12454 3.9598 4.68257 2.98763L4.19733 2.75052C3.37242 3.03505 2.25637 3.46186 1.43146 3.81753L6.21107 14.298C10.4569 12.4485 15.1637 11.4052 20.1132 11.4052C25.0626 11.4052 29.7695 12.4248 34.0153 14.298L38.892 3.88866C38.0913 3.53299 36.951 3.08248 36.1261 2.79794ZM38.3097 25.1103V26.6279C39.5471 26.9124 40.3962 27.9557 40.3962 29.2835C40.3962 30.5877 39.5471 31.6547 38.3097 31.9392V33.4567C39.5471 33.7413 40.3962 34.7846 40.3962 36.1124C40.3962 37.4165 39.5471 38.4835 38.3097 38.7681V40.2856C39.5471 40.5701 40.3962 41.6134 40.3962 42.9413C40.3962 44.4825 39.2317 45.6681 37.6061 45.6681C35.9805 45.6681 34.816 44.4825 34.816 42.9413C34.816 41.6372 35.6651 40.5701 36.9025 40.2856V38.7681C35.6409 38.4835 34.816 37.4402 34.816 36.1124C34.816 34.8083 35.6651 33.7413 36.9025 33.4567V31.9392C35.6409 31.6547 34.816 30.6114 34.816 29.2835C34.816 27.9794 35.6651 26.9124 36.9025 26.6279V25.1103C35.6409 24.8258 34.816 23.7825 34.816 22.4547C34.816 21.1505 35.6651 20.0835 36.9025 19.799V18.2815C35.8835 18.0443 35.1314 17.3093 34.8888 16.3134H33.4088V45.5732H33.1176C32.3898 43.4629 31.3222 41.5186 29.9636 39.8114V39.4557H31.3465V35.3774H27.8528V39.4557H28.5564V39.8351C27.6587 41.5897 26.9793 43.5341 26.6154 45.5969H26.3485C25.9603 43.5341 25.3053 41.6134 24.4076 39.8351V39.4557H25.1112V35.3774H21.6174V39.4557H22.321V39.8351C21.4233 41.5897 20.744 43.5341 20.3801 45.5969H20.1132C19.725 43.5341 19.0699 41.6134 18.1722 39.8351V39.4557H18.8758V35.3774H15.3821V39.4557H16.0857V39.8351C15.188 41.5897 14.5087 43.5341 14.1447 45.5969H13.8779C13.4897 43.5341 12.8346 41.6134 11.9369 39.8351V39.4557H12.6405V35.3774H9.07399V39.4557H10.4569V39.8114C9.09825 41.5186 8.00646 43.4866 7.30286 45.5732H6.98746V16.3371H5.50747C5.26485 17.3093 4.51273 18.0681 3.49373 18.3052V19.8227C4.73109 20.1072 5.58026 21.1505 5.58026 22.4784C5.58026 23.7825 4.73109 24.8495 3.49373 25.134V26.6516C4.73109 26.9361 5.58026 27.9794 5.58026 29.3072C5.58026 30.6114 4.73109 31.6784 3.49373 31.9629V33.4804C4.73109 33.765 5.58026 34.8083 5.58026 36.1361C5.58026 37.4402 4.73109 38.5073 3.49373 38.7918V40.3093C4.73109 40.5939 5.58026 41.6372 5.58026 42.965C5.58026 44.5062 4.41568 45.6918 2.79013 45.6918C1.16458 45.6918 0 44.5062 0 42.965C0 41.6609 0.84917 40.5939 2.08653 40.3093V38.7918C0.824908 38.5073 0 37.464 0 36.1361C0 34.832 0.84917 33.765 2.08653 33.4804V31.9629C0.824908 31.6784 0 30.6351 0 29.3072C0 28.0031 0.84917 26.9361 2.08653 26.6516V25.134C0.824908 24.8495 0 23.8062 0 22.4784C0 21.1742 0.84917 20.1072 2.08653 19.8227V18.3052C0.824908 18.0206 0 16.9773 0 15.6495C0 14.1083 1.16458 12.9227 2.79013 12.9227C4.17306 12.9227 5.21633 13.7763 5.50747 14.9619H34.913C35.2042 13.7763 36.2474 12.9227 37.6304 12.9227C39.2559 12.9227 40.4205 14.1083 40.4205 15.6495C40.4205 16.9536 39.5713 18.0206 38.334 18.3052V19.8227C39.5713 20.1072 40.4205 21.1505 40.4205 22.4784C40.3962 23.7588 39.5713 24.8258 38.3097 25.1103ZM3.46947 41.6609C3.39668 41.9691 3.1298 42.2062 2.79013 42.2062C2.4262 42.2062 2.18358 41.9928 2.11079 41.6609C1.67408 41.8743 1.4072 42.3011 1.4072 42.8701C1.4072 43.6763 1.96522 44.2217 2.79013 44.2217C3.61504 44.2217 4.17306 43.6763 4.17306 42.8701C4.19733 42.3248 3.93044 41.8743 3.46947 41.6609ZM3.46947 34.8557C3.39668 35.164 3.1298 35.4011 2.79013 35.4011C2.4262 35.4011 2.18358 35.1877 2.11079 34.8557C1.67408 35.0691 1.4072 35.4959 1.4072 36.065C1.4072 36.6341 1.67408 37.0609 2.11079 37.2743C2.18358 36.966 2.45046 36.7289 2.79013 36.7289C3.15406 36.7289 3.39668 36.9423 3.46947 37.2743C3.90618 37.0609 4.17306 36.6341 4.17306 36.065C4.19733 35.5196 3.93044 35.0691 3.46947 34.8557ZM3.46947 28.0505C3.39668 28.3588 3.1298 28.5959 2.79013 28.5959C2.4262 28.5959 2.18358 28.3825 2.11079 28.0505C1.67408 28.2639 1.4072 28.6907 1.4072 29.2598C1.4072 29.8289 1.67408 30.2557 2.11079 30.4691C2.18358 30.1609 2.45046 29.9237 2.79013 29.9237C3.15406 29.9237 3.39668 30.1371 3.46947 30.4691C3.90618 30.2557 4.17306 29.8289 4.17306 29.2598C4.19733 28.6907 3.93044 28.2639 3.46947 28.0505ZM4.19733 15.6495C4.19733 14.8433 3.6393 14.298 2.81439 14.298C1.98948 14.298 1.43146 14.8433 1.43146 15.6495C1.43146 16.2186 1.69834 16.6454 2.13506 16.8588C2.20784 16.5505 2.47472 16.3134 2.81439 16.3134C3.17832 16.3134 3.42094 16.5268 3.49373 16.8588C3.93044 16.6454 4.19733 16.2186 4.19733 15.6495ZM12.5435 29.2598H9.07399V33.3382H12.5677V29.2598H12.5435ZM12.5435 23.1423H9.07399V27.2206H12.5677V23.1423H12.5435ZM12.5435 17.0248H9.07399V21.1031H12.5677V17.0248H12.5435ZM18.8273 29.2598H15.3336V33.3382H18.8273V29.2598ZM18.8273 23.1423H15.3336V27.2206H18.8273V23.1423ZM18.8273 17.0248H15.3336V21.1031H18.8273V17.0248ZM25.0869 29.2598H21.5932V33.3382H25.0869V29.2598ZM25.0869 23.1423H21.5932V27.2206H25.0869V23.1423ZM25.0869 17.0248H21.5932V21.1031H25.0869V17.0248ZM31.3465 29.2598H27.8528V33.3382H31.3465V29.2598ZM31.3465 23.1423H27.8528V27.2206H31.3465V23.1423ZM31.3465 17.0248H27.8528V21.1031H31.3465V17.0248ZM36.951 16.8588C37.0238 16.5505 37.2907 16.3134 37.6304 16.3134C37.9943 16.3134 38.2369 16.5268 38.3097 16.8588C38.7464 16.6454 39.0133 16.2186 39.0133 15.6495C39.0133 14.8433 38.4553 14.298 37.6304 14.298C36.8055 14.298 36.2474 14.8433 36.2474 15.6495C36.2232 16.2186 36.49 16.6454 36.951 16.8588ZM38.3097 41.6609C38.2369 41.9691 37.97 42.2062 37.6304 42.2062C37.2664 42.2062 37.0238 41.9928 36.951 41.6609C36.5143 41.8743 36.2474 42.3011 36.2474 42.8701C36.2474 43.6763 36.8055 44.2217 37.6304 44.2217C38.4553 44.2217 39.0133 43.6763 39.0133 42.8701C39.0133 42.3248 38.7464 41.8743 38.3097 41.6609ZM38.3097 34.8557C38.2369 35.164 37.97 35.4011 37.6304 35.4011C37.2664 35.4011 37.0238 35.1877 36.951 34.8557C36.5143 35.0691 36.2474 35.4959 36.2474 36.065C36.2474 36.6341 36.5143 37.0609 36.951 37.2743C37.0238 36.966 37.2907 36.7289 37.6304 36.7289C37.9943 36.7289 38.2369 36.9423 38.3097 37.2743C38.7464 37.0609 39.0133 36.6341 39.0133 36.065C39.0133 35.5196 38.7464 35.0691 38.3097 34.8557ZM38.3097 28.0505C38.2369 28.3588 37.97 28.5959 37.6304 28.5959C37.2664 28.5959 37.0238 28.3825 36.951 28.0505C36.5143 28.2639 36.2474 28.6907 36.2474 29.2598C36.2474 29.8289 36.5143 30.2557 36.951 30.4691C37.0238 30.1609 37.2907 29.9237 37.6304 29.9237C37.9943 29.9237 38.2369 30.1371 38.3097 30.4691C38.7464 30.2557 39.0133 29.8289 39.0133 29.2598C39.0133 28.6907 38.7464 28.2639 38.3097 28.0505ZM3.46947 21.2454C3.39668 21.5536 3.1298 21.7907 2.79013 21.7907C2.4262 21.7907 2.18358 21.5773 2.11079 21.2454C1.67408 21.4588 1.4072 21.8856 1.4072 22.4547C1.4072 23.0237 1.67408 23.4505 2.11079 23.6639C2.18358 23.3557 2.45046 23.1186 2.79013 23.1186C3.15406 23.1186 3.39668 23.332 3.46947 23.6639C3.90618 23.4505 4.17306 23.0237 4.17306 22.4547C4.19733 21.8856 3.93044 21.4588 3.46947 21.2454ZM38.3097 21.2454C38.2369 21.5536 37.97 21.7907 37.6304 21.7907C37.2664 21.7907 37.0238 21.5773 36.951 21.2454C36.5143 21.4588 36.2474 21.8856 36.2474 22.4547C36.2474 23.0237 36.5143 23.4505 36.951 23.6639C37.0238 23.3557 37.2907 23.1186 37.6304 23.1186C37.9943 23.1186 38.2369 23.332 38.3097 23.6639C38.7464 23.4505 39.0133 23.0237 39.0133 22.4547C39.0133 21.8856 38.7464 21.4588 38.3097 21.2454Z" fill="white"/>
</g>
</svg>
